<?xml version="1.0" encoding="UTF-8" standalone="no"?> <svg width="512" height="512" viewBox="0 0 512 512" fill="none" xmlns="http://www.w3.org/2000/svg">
<path d="M464 376.33V280C464 275.582 460.418 272 456 272H448V221.13C448 205.098 437.834 190.767 422.703 185.469L318.787 149.094L342.058 125.823C345.183 122.699 345.183 117.634 342.058 114.51L336.401 108.853L353.372 91.882C356.497 88.758 356.497 83.693 353.372 80.569L381.656 52.285C384.781 49.161 384.781 44.096 381.656 40.972L359.029 18.345C355.905 15.221 350.84 15.221 347.716 18.345L319.432 46.629C316.308 43.505 311.243 43.505 308.119 46.629L291.148 63.6L285.491 57.943C282.367 54.819 277.302 54.819 274.178 57.943L189.443 142.678L175.697 128.932C167.681 120.915 154.637 120.915 146.621 128.932L132.875 142.678C129.75 145.802 129.75 150.867 132.875 153.991L122.976 163.891C115.958 170.909 115.958 182.329 122.976 189.347L131.461 197.832C134.97 201.341 139.579 203.096 144.189 203.096C148.799 203.096 153.408 201.342 156.917 197.832L166.816 187.932L172.473 193.589L162.574 203.488C159.174 206.887 157.302 211.408 157.302 216.216C157.302 221.024 159.175 225.544 162.574 228.944L171.059 237.429C174.568 240.938 179.178 242.693 183.787 242.693C188.396 242.693 193.006 240.939 196.515 237.429L206.414 227.53L212.071 233.187L202.171 243.086C195.152 250.104 195.152 261.524 202.171 268.542L210.656 277.027C214.165 280.537 218.774 282.291 223.384 282.291C227.992 282.291 232.603 280.536 236.112 277.027L246.012 267.128C247.574 268.69 249.621 269.471 251.669 269.471C253.717 269.471 255.764 268.69 257.326 267.128L271.073 253.382C279.089 245.365 279.089 232.322 271.073 224.306L257.327 210.56L281.79 186.097L346.009 227.372C353.472 232.167 356.981 241.473 354.541 250.004L348.255 272H296C291.582 272 288 275.582 288 280V376H144V360H168C172.418 360 176 356.418 176 352V336H192C196.418 336 200 332.418 200 328V296C200 291.582 196.418 288 192 288H48C43.582 288 40 291.582 40 296V328C40 332.418 43.582 336 48 336H64V352C64 356.418 67.582 360 72 360H96V376H52.854C32.532 376 16 392.532 16 412.854V434.627C16 450.823 29.177 464 45.374 464H80V488C80 492.418 83.582 496 88 496H136C139.03 496 141.8 494.288 143.155 491.578L156.944 464H355.056L368.845 491.578C370.2 494.288 372.97 496 376 496H424C428.418 496 432 492.418 432 488V464H466.626C482.823 464 496 450.823 496 434.626V412.853C496 394.178 482.034 378.714 464 376.33ZM353.373 35.313L364.687 46.627L342.06 69.254L330.746 57.94L353.373 35.313ZM313.774 63.598L336.402 86.226L325.088 97.54L302.46 74.912L313.774 63.598ZM145.601 186.517C144.82 187.297 143.552 187.296 142.772 186.517L134.287 178.032C133.507 177.252 133.507 175.983 134.287 175.203L144.186 165.304L155.5 176.617L145.601 186.517ZM185.199 226.115C184.419 226.894 183.15 226.894 182.37 226.115L173.885 217.63C173.105 216.85 173.105 215.581 173.885 214.801L183.784 204.902L195.098 216.216L185.199 226.115ZM224.797 265.713C224.016 266.492 222.748 266.492 221.968 265.713L213.483 257.228C212.703 256.448 212.703 255.179 213.483 254.399L223.383 244.5L234.696 255.814L224.797 265.713ZM259.756 235.618C261.534 237.396 261.534 240.289 259.756 242.067L251.667 250.156L149.844 148.333L157.933 140.244C159.711 138.466 162.604 138.466 164.382 140.244L259.756 235.618ZM246.01 199.245L200.755 153.99L279.833 74.912L325.088 120.167L246.01 199.245ZM354.656 213.91L293.366 174.516L306.231 161.651L417.417 200.57C426.139 203.625 432 211.887 432 221.13V272H364.895L369.922 254.4C374.356 238.898 368.221 222.626 354.656 213.91ZM304 288H448V376H424V360C424 333.533 402.467 312 376 312C349.533 312 328 333.533 328 360V376H304V288ZM408 360V376H344V360C344 342.355 358.355 328 376 328C393.645 328 408 342.355 408 360ZM56 320V304H184V320H56ZM80 344V336H160V344H80ZM128 360V376H112V360H128ZM131.056 480H96V464H139.056L131.056 480ZM416 480H380.944L372.944 464H416V480ZM480 434.626C480 442 474 448 466.626 448H45.374C38 448 32 442 32 434.626V432H480V434.626ZM480 416H32V412.854C32 401.355 41.355 392 52.854 392H459.147C470.646 392 480.001 401.355 480.001 412.854V416H480Z" fill="black"/>
<path d="M368.015 360.167C368.015 364.585 371.601 368.167 376.02 368.167C380.439 368.167 384.02 364.585 384.02 360.167C384.02 355.749 380.438 352.167 376.02 352.167H376.01C371.592 352.167 368.015 355.748 368.015 360.167Z" fill="black"/>
</svg>
