<?xml version="1.0" encoding="UTF-8"?>
<!DOCTYPE svg PUBLIC "-//W3C//DTD SVG 1.1//EN" "http://www.w3.org/Graphics/SVG/1.1/DTD/svg11.dtd">
<!-- Creator: CorelDRAW -->
<svg xmlns="http://www.w3.org/2000/svg" xml:space="preserve" width="1.70666in" height="1.70666in" version="1.1" style="shape-rendering:geometricPrecision; text-rendering:geometricPrecision; image-rendering:optimizeQuality; fill-rule:evenodd; clip-rule:evenodd"
viewBox="0 0 1706.66 1706.66"
 xmlns:xlink="http://www.w3.org/1999/xlink"
 xmlns:xodm="http://www.corel.com/coreldraw/odm/2003">
 <defs>
  <style type="text/css">
   <![CDATA[
    .fil0 {fill:black}
   ]]>
  </style>
 </defs>
 <g id="Layer_x0020_1">
  <metadata id="CorelCorpID_0Corel-Layer"/>
  <path class="fil0" d="M1059.17 648.07c-12.77,0 -225.5,-127.12 -254.61,-143.92 -152.55,-88.08 -89.3,-322.41 86.86,-322.41 30.15,0 59.88,7.97 85.98,23.05l244.63 141.24c9.53,5.5 12.85,17.72 7.31,27.31l-152.87 264.76c-3.7,6.39 -10.41,9.97 -17.31,9.97zm-167.75 -426.38c-136.65,0 -183.09,180.75 -66.89,247.83l227.31 131.24 132.89 -230.16 -227.33 -131.23c-20.01,-11.56 -42.84,-17.68 -65.98,-17.68z"/>
  <path class="fil0" d="M1364.9 648.07c-7.12,0 -13.73,-3.8 -17.3,-9.99l-152.87 -264.76c-5.52,-9.57 -2.23,-21.8 7.31,-27.31l244.63 -141.24c131.38,-75.83 293.32,44.65 253.18,194.35 -11.97,44.71 -40.52,81.99 -80.35,105 -29.05,16.78 -241.89,143.95 -254.59,143.95zm-125.58 -277.45l132.89 230.16 227.33 -131.25c116.19,-67.09 69.78,-247.83 -66.87,-247.83 -23.15,0 -45.97,6.12 -66.02,17.69l-227.32 131.24z"/>
  <path class="fil0" d="M874.77 1524.94c-71.38,0 -138.31,-27.63 -188.46,-77.76l-607.74 -607.74c-103.78,-103.76 -103.76,-273.19 0,-376.94 81.79,-81.79 138.87,-157.49 268.19,-157.49 71.39,0 138.31,27.63 188.47,77.77l607.74 607.75c103.75,103.75 103.75,273.19 0,376.94 -81.78,81.78 -138.9,157.47 -268.2,157.47zm-528.02 -1179.98c-113.28,0 -164.41,70.25 -239.94,145.78 -88.15,88.15 -88.15,232.29 0,320.44l607.74 607.73c88.14,88.14 232.3,88.16 320.42,0 75.51,-75.54 145.79,-126.62 145.79,-239.93 0,-60.72 -23.45,-117.61 -66.07,-160.21l-607.73 -607.76c-42.6,-42.59 -99.5,-66.06 -160.21,-66.06z"/>
  <path class="fil0" d="M874.78 1437.03c-62.52,0 -156.84,-49.76 -126.16,-80.44 7.8,-7.81 20.45,-7.81 28.25,0 53.99,53.99 141.83,54 195.8,0l79.7 -79.7c18.63,-18.63 46.87,9.69 28.27,28.27 -67.43,67.36 -112.88,131.87 -205.86,131.87zm-719.78 -878.13c-17.6,0 -26.77,-21.47 -14.12,-34.11 67.3,-67.23 112.52,-131.76 205.86,-131.76 63.24,0 156.68,49.82 126.16,80.31 -27.2,27.17 -38.61,-40.37 -126.16,-40.37 -37.11,0 -71.87,14.33 -97.91,40.37l-79.7 79.7c-3.9,3.9 -9.02,5.86 -14.13,5.86z"/>
  <path class="fil0" d="M396.56 1149.17c-17.61,0 -26.77,-21.5 -14.13,-34.13l428.41 -428.4c18.61,-18.61 46.86,9.67 28.25,28.25l-428.41 428.41c-3.9,3.91 -9.01,5.86 -14.13,5.86z"/>
 </g>
</svg>
