<?xml version="1.0" encoding="UTF-8"?>
<!DOCTYPE svg PUBLIC "-//W3C//DTD SVG 1.1//EN" "http://www.w3.org/Graphics/SVG/1.1/DTD/svg11.dtd">
<!-- Creator: CorelDRAW -->
<svg xmlns="http://www.w3.org/2000/svg" xml:space="preserve" width="800px" height="800px" version="1.1" style="shape-rendering:geometricPrecision; text-rendering:geometricPrecision; image-rendering:optimizeQuality; fill-rule:evenodd; clip-rule:evenodd"
viewBox="0 0 800 800"
 xmlns:xlink="http://www.w3.org/1999/xlink">
 <defs>
  <style type="text/css">
   <![CDATA[
    .fil3 {fill:#003333}
    .fil2 {fill:#7DD63E}
    .fil0 {fill:#003333;fill-rule:nonzero}
    .fil1 {fill:white;fill-rule:nonzero}
   ]]>
  </style>
 </defs>
 <g id="Layer_x0020_1">
  <metadata id="CorelCorpID_0Corel-Layer"/>
  <g id="_605672952">
   <circle id="_306843384" class="fil0" cx="400" cy="400" r="400"/>
   <circle id="_306844632" class="fil1" cx="400" cy="400" r="373"/>
  </g>
  <g id="_605671632">
   <g>
    <g>
     <g>
      <path class="fil2" d="M267 562c-3,0 -5,-1 -6,-3 -2,-3 -1,-8 2,-9l44 -26c1,-1 3,-1 5,-1 143,39 183,9 271,-57 17,-12 36,-26 57,-41 -3,-5 -6,-8 -11,-9 -23,-7 -66,24 -91,42 -8,5 -15,10 -20,13 0,0 -1,1 -1,1 -1,0 -2,0 -3,0l-100 1c0,0 0,0 0,0 -3,0 -6,-3 -6,-7 0,-4 3,-7 6,-7l93 0c0,-7 -3,-13 -7,-18 -19,-18 -64,-17 -95,-15 -6,0 -11,0 -16,0 -1,0 -2,0 -3,-1 -60,-36 -98,-9 -146,25 -8,6 -16,11 -25,17 -3,2 -7,1 -9,-2 -2,-3 -1,-7 2,-9 8,-6 16,-11 24,-17 47,-34 92,-66 159,-27 4,0 9,0 14,0 33,-1 82,-3 104,20 6,6 10,13 11,21 3,-2 6,-4 10,-6 31,-23 74,-53 103,-44 10,3 18,10 22,22 1,3 0,6 -2,8 -23,16 -44,31 -62,44 -88,66 -133,99 -280,60l-41 24c-1,1 -2,1 -3,1z"/>
     </g>
     <g>
      <path class="fil2" d="M501 440c-2,0 -5,-1 -6,-3 -2,-3 -1,-8 3,-10 2,-1 6,-3 9,-6 20,-12 47,-29 68,-24 9,2 16,8 21,16 2,4 1,8 -2,10 -4,2 -8,0 -10,-3 -3,-5 -7,-8 -12,-9 -16,-4 -41,11 -57,22 -4,2 -8,5 -10,6 -2,1 -3,1 -4,1z"/>
     </g>
     <g>
      <path class="fil3" d="M228 610c-3,0 -5,-1 -6,-4l-77 -130c-1,-2 -1,-4 -1,-6 1,-1 2,-3 4,-4l49 -29c4,-2 8,-1 10,3l76 130c1,2 2,4 1,6 0,1 -2,3 -3,4l-50 29c-1,1 -2,1 -3,1zm-68 -135l70 119 38 -23 -70 -119 -38 23z"/>
     </g>
    </g>
    <g>
     <path class="fil3" d="M448 399c-2,0 -4,-1 -5,-2 -49,-49 -99,-100 -99,-151 0,-31 25,-56 55,-56 24,0 38,11 49,29 11,-18 25,-29 49,-29 30,0 55,25 55,56 0,51 -50,102 -99,151 -1,1 -3,2 -5,2zm-49 -195c-23,0 -42,19 -42,42 0,44 46,91 91,136 45,-45 91,-92 91,-136 0,-23 -19,-42 -42,-42 -20,0 -31,8 -43,33 -1,2 -3,3 -6,3l0 0c-3,0 -5,-1 -6,-3 -12,-25 -23,-33 -43,-33z"/>
    </g>
   </g>
  </g>
 </g>
</svg>
